<svg width="250" height="64" viewBox="0 0 250 64" fill="none" xmlns="http://www.w3.org/2000/svg">
<path d="M2.13477 19.3491V44.3101C2.13477 45.8986 2.98112 47.37 4.36133 48.1642L25.9759 60.6382C27.3561 61.4325 29.0488 61.4325 30.429 60.6382L52.0436 48.1642C53.4238 47.37 54.2702 45.8986 54.2702 44.3101V19.3491C54.2702 17.7606 53.4238 16.2892 52.0436 15.495L30.429 3.021C29.0488 2.22673 27.3561 2.22673 25.9759 3.021L4.36133 15.495C2.99414 16.2892 2.13477 17.7606 2.13477 19.3491Z" fill="#213147"/>
<path d="M32.9297 36.667L29.8437 45.1175C29.7526 45.3519 29.7526 45.6123 29.8437 45.8467L35.1432 60.391L41.276 56.8493L33.9193 36.667C33.75 36.1982 33.099 36.1982 32.9297 36.667Z" fill="#12AAFF"/>
<path d="M39.1009 22.448C38.9316 21.9792 38.2806 21.9792 38.1113 22.448L35.0254 30.8985C34.9342 31.1329 34.9342 31.3933 35.0254 31.6277L43.7103 55.4428L49.8431 51.9011L39.1009 22.448Z" fill="#12AAFF"/>
<path d="M28.2031 3.94531C28.3594 3.94531 28.5026 3.98438 28.6458 4.0625L52.0312 17.5651C52.3047 17.7214 52.474 18.0078 52.474 18.3203V45.3255C52.474 45.638 52.3047 45.9245 52.0312 46.0807L28.6458 59.5964C28.5156 59.6745 28.3594 59.7135 28.2031 59.7135C28.0469 59.7135 27.9036 59.6745 27.7604 59.5964L4.38802 46.0938C4.11458 45.9375 3.94531 45.651 3.94531 45.3385V18.3203C3.94531 18.0078 4.11458 17.7214 4.38802 17.5651L27.7734 4.0625C27.9036 3.98438 28.0599 3.94531 28.2031 3.94531ZM28.2031 0C27.3698 0 26.5365 0.221354 25.7943 0.651042L2.40885 14.1536C0.924479 15.013 0 16.6016 0 18.3203V45.3255C0 47.0443 0.924479 48.6458 2.40885 49.5052L25.7943 63.0078C26.5365 63.4375 27.3698 63.6589 28.2031 63.6589C29.0365 63.6589 29.8698 63.4375 30.612 63.0078L53.9974 49.5052C55.4948 48.6458 56.4062 47.0573 56.4062 45.3255V18.3203C56.4062 16.6016 55.4818 15 53.9974 14.1406L30.625 0.651042C29.8698 0.221354 29.0365 0 28.2031 0Z" fill="#9DCCED"/>
<path d="M12.748 55.4689L14.8965 49.5835L19.2194 53.1773L15.1829 56.8752L12.748 55.4689Z" fill="#213147"/>
<path d="M26.2376 16.3931H20.3132C19.8704 16.3931 19.4668 16.6665 19.3236 17.0832L6.61523 51.9269L12.748 55.4686L26.7454 17.0962C26.8626 16.7576 26.6152 16.3931 26.2376 16.3931Z" fill="white"/>
<path d="M36.6159 16.3931H30.6914C30.2487 16.3931 29.8451 16.6665 29.7018 17.0832L15.1836 56.8748L21.3164 60.4165L37.1107 17.1092C37.2409 16.7576 36.9805 16.3931 36.6159 16.3931Z" fill="white"/>
<path d="M81.6535 23.6458C82.2394 23.6458 82.7472 23.7629 83.1509 24.0103C83.5545 24.2577 83.9582 24.7265 84.3488 25.4296L92.0832 39.4661C92.1613 39.6223 92.1743 39.7525 92.1353 39.8567C92.0962 39.9609 91.979 40.0129 91.7967 40.0129H88.828C88.5676 40.0129 88.3853 39.9088 88.2941 39.7135L86.6405 36.7057H75.6639L74.0493 39.7135C73.9452 39.9218 73.7629 40.0129 73.5155 40.0129H70.4816C70.2733 40.0129 70.1561 39.9609 70.117 39.8567C70.078 39.7525 70.091 39.6223 70.1691 39.4661L77.8384 25.4296C78.229 24.7265 78.6066 24.2577 78.9842 24.0103C79.3618 23.7629 79.7915 23.6458 80.2863 23.6458H81.6535ZM77.1092 33.9713H85.1561L81.4452 27.1223C81.3801 27.0181 81.3019 26.953 81.1847 26.953H81.0415C80.9373 26.953 80.8462 27.0051 80.7811 27.1223L77.1092 33.9713Z" fill="#213147"/>
<path d="M109.076 23.6455C110.872 23.6455 112.148 24.0492 112.93 24.8565C113.711 25.6637 114.102 26.8617 114.102 28.4502V29.7783C114.102 31.1195 113.828 32.1742 113.281 32.9554C112.734 33.7367 111.849 34.2314 110.612 34.4528L114.609 39.4007C114.687 39.4788 114.714 39.596 114.674 39.7523C114.648 39.9085 114.518 39.9867 114.297 39.9867H111.289C111.081 39.9867 110.951 39.9606 110.872 39.9216C110.794 39.8695 110.716 39.7913 110.638 39.6872L106.94 34.8304H99.388V39.4788C99.388 39.8174 99.2187 39.9867 98.8802 39.9867H96.3542C95.9896 39.9867 95.8203 39.8174 95.8203 39.4788V24.3486C95.8203 23.8799 96.0547 23.6455 96.5234 23.6455H109.076ZM99.401 31.9919H108.346C109.141 31.9919 109.701 31.8226 110.026 31.4841C110.352 31.1455 110.521 30.6247 110.521 29.9216V28.945C110.521 28.2419 110.352 27.721 110.026 27.3825C109.701 27.0439 109.141 26.8747 108.346 26.8747H99.7005C99.4922 26.8747 99.401 26.9658 99.401 27.1611V31.9919Z" fill="#213147"/>
<path d="M133.645 23.6458C135.247 23.6458 136.393 23.9713 137.07 24.6093C137.747 25.2473 138.085 26.2109 138.085 27.4999V28.6197C138.085 29.9218 137.59 30.9114 136.588 31.5885C137.656 32.2135 138.202 33.2161 138.202 34.5963V35.9504C138.202 36.5754 138.137 37.1353 137.994 37.6301C137.851 38.1249 137.63 38.5546 137.304 38.9062C136.979 39.2577 136.562 39.5312 136.028 39.7135C135.494 39.8958 134.843 39.9999 134.062 39.9999H120.182C119.713 39.9999 119.479 39.7655 119.479 39.2968V24.3489C119.479 23.8801 119.713 23.6458 120.182 23.6458H133.645ZM123.059 30.4426H132.643C133.424 30.4426 133.945 30.3254 134.231 30.0911C134.518 29.8567 134.648 29.5182 134.648 29.0624V28.2681C134.648 27.7864 134.518 27.4348 134.244 27.2004C133.971 26.9791 133.528 26.8619 132.929 26.8619H123.372C123.163 26.8619 123.072 26.9661 123.072 27.1614V30.4426H123.059ZM123.059 32.9947V36.4713C123.059 36.6796 123.163 36.7708 123.359 36.7708H132.942C133.567 36.7708 134.01 36.6536 134.27 36.4322C134.531 36.2109 134.674 35.8463 134.674 35.3515V34.4661C134.674 33.9843 134.531 33.6197 134.244 33.3723C133.958 33.1249 133.424 32.9947 132.643 32.9947H123.059Z" fill="#213147"/>
<path d="M146.913 23.6458C147.252 23.6458 147.421 23.815 147.421 24.1536V39.4791C147.421 39.8176 147.252 39.9869 146.913 39.9869H144.387C144.023 39.9869 143.854 39.8176 143.854 39.4791V24.1666C143.854 23.828 144.036 23.6588 144.387 23.6588L146.913 23.6458Z" fill="#213147"/>
<path d="M171.394 23.6458C171.758 23.6458 171.928 23.815 171.928 24.1536V26.4452C171.928 26.8098 171.745 26.9791 171.394 26.9791H164.063V39.4791C164.063 39.8176 163.894 39.9869 163.555 39.9869H161.003C160.665 39.9869 160.495 39.8176 160.495 39.4791V26.9791H153.165C152.8 26.9791 152.631 26.7968 152.631 26.4452V24.1536C152.631 23.815 152.813 23.6458 153.165 23.6458H171.394Z" fill="#213147"/>
<path d="M189.87 23.6458C191.667 23.6458 192.943 24.0494 193.725 24.8567C194.506 25.664 194.896 26.8619 194.896 28.4504V29.7786C194.896 31.1197 194.623 32.1744 194.076 32.9556C193.529 33.7369 192.644 34.2317 191.407 34.453L195.404 39.401C195.482 39.4791 195.508 39.5963 195.469 39.7525C195.443 39.9088 195.313 39.9869 195.092 39.9869H192.084C191.876 39.9869 191.745 39.9609 191.667 39.9218C191.589 39.8697 191.511 39.7916 191.433 39.6874L187.735 34.8307H180.183V39.4791C180.183 39.8176 180.014 39.9869 179.675 39.9869H177.149C176.785 39.9869 176.615 39.8176 176.615 39.4791V24.3489C176.615 23.8801 176.85 23.6458 177.318 23.6458H189.87ZM180.209 31.9921H189.154C189.949 31.9921 190.508 31.8228 190.834 31.4843C191.16 31.1458 191.329 30.6249 191.329 29.9218V28.9452C191.329 28.2421 191.16 27.7213 190.834 27.3827C190.508 27.0442 189.949 26.8749 189.154 26.8749H180.508C180.3 26.8749 180.209 26.9661 180.209 27.1614V31.9921Z" fill="#213147"/>
<path d="M203.008 23.6458C203.347 23.6458 203.516 23.815 203.516 24.1536V33.4765C203.516 34.1015 203.568 34.6223 203.673 35.026C203.777 35.4426 203.946 35.7682 204.18 36.0025C204.415 36.2499 204.727 36.4192 205.131 36.5103C205.535 36.6145 206.029 36.6666 206.641 36.6666H213.113C213.725 36.6666 214.219 36.6145 214.623 36.5103C215.027 36.4062 215.339 36.2369 215.574 36.0025C215.808 35.7551 215.977 35.4296 216.068 35.026C216.16 34.6093 216.212 34.1015 216.212 33.4765V24.1536C216.212 23.815 216.381 23.6458 216.719 23.6458H219.271C219.61 23.6458 219.779 23.815 219.779 24.1536V33.828C219.779 34.9478 219.662 35.8984 219.428 36.6926C219.193 37.4739 218.816 38.1119 218.295 38.6067C217.774 39.1015 217.097 39.453 216.264 39.6744C215.43 39.8958 214.428 39.9999 213.243 39.9999H206.511C205.326 39.9999 204.324 39.8958 203.503 39.6744C202.683 39.453 202.006 39.1015 201.485 38.6067C200.964 38.1119 200.587 37.4739 200.339 36.6926C200.092 35.9114 199.975 34.9478 199.975 33.828V24.1536C199.975 23.815 200.157 23.6458 200.508 23.6458H203.008Z" fill="#213147"/>
<path d="M229.817 23.6458C230.156 23.6458 230.455 23.6718 230.702 23.7109C230.95 23.7629 231.171 23.8411 231.354 23.9843C231.536 24.1145 231.705 24.2968 231.861 24.5181C232.005 24.7395 232.161 25.039 232.317 25.4166L237.174 36.6275C237.239 36.7708 237.343 36.8359 237.499 36.8359H237.786C237.942 36.8359 238.046 36.7708 238.111 36.6275L242.968 25.4166C243.124 25.039 243.281 24.7395 243.424 24.5181C243.567 24.2968 243.736 24.1145 243.932 23.9843C244.114 23.8541 244.335 23.7629 244.57 23.7109C244.817 23.6588 245.104 23.6458 245.442 23.6458H247.942C248.749 23.6458 249.296 23.828 249.583 24.1926C249.869 24.5572 249.999 25.1822 249.999 26.0676V39.4791C249.999 39.8176 249.817 39.9869 249.465 39.9869H247.083C246.744 39.9869 246.575 39.8176 246.575 39.4791V27.2786C246.575 27.1223 246.51 27.0442 246.393 27.0442H246.184C246.028 27.0442 245.924 27.1093 245.885 27.2265L241.171 37.6952C240.989 38.1119 240.794 38.4765 240.598 38.7629C240.403 39.0494 240.195 39.2838 239.973 39.4791C239.752 39.6614 239.492 39.8046 239.205 39.8827C238.919 39.9609 238.58 39.9999 238.189 39.9999H237.07C236.679 39.9999 236.34 39.9609 236.054 39.8827C235.768 39.8046 235.507 39.6744 235.286 39.4791C235.064 39.2968 234.843 39.0494 234.661 38.7629C234.465 38.4765 234.27 38.1249 234.088 37.6952L229.374 27.2265C229.322 27.0963 229.231 27.0442 229.075 27.0442H228.867C228.736 27.0442 228.684 27.1223 228.684 27.2786V39.4791C228.684 39.8176 228.515 39.9869 228.176 39.9869H225.794C225.429 39.9869 225.26 39.8176 225.26 39.4791V26.0676C225.26 25.1822 225.403 24.5572 225.676 24.1926C225.963 23.828 226.51 23.6458 227.33 23.6458H229.817Z" fill="#213147"/>
</svg>
