<svg width="132" height="136" viewBox="0 0 132 136" fill="none" xmlns="http://www.w3.org/2000/svg">
<path d="M95.0668 27.2973L120.563 1.61998L130.305 11.3616L94.712 46.9545L74.6993 26.9418L84.2651 17.2052L94.3584 27.2985L94.7132 27.6533L95.0668 27.2973ZM1.16211 134.903V18.3283C1.16211 14.4286 2.54479 11.1027 5.32399 8.32351C8.10319 5.54431 11.4291 4.16162 15.3288 4.16162H58.8287V17.8283H15.3288H14.8288V18.3283V113.295V114.054L15.5263 113.754L51.9954 98.0726L88.4645 113.754L89.162 114.054V113.295V62.8283H102.829V134.903L52.1923 113.202L51.9954 113.118L51.7984 113.202L1.16211 134.903Z" fill="url(#paint0_linear_411_1509)" stroke="url(#paint1_linear_411_1509)"/>
<defs>
<linearGradient id="paint0_linear_411_1509" x1="65.837" y1="-41.3176" x2="65.837" y2="159.841" gradientUnits="userSpaceOnUse">
<stop stop-color="#F3511F"/>
<stop offset="1" stop-color="#F3511F" stop-opacity="0"/>
</linearGradient>
<linearGradient id="paint1_linear_411_1509" x1="65.837" y1="-57.7584" x2="65.837" y2="175.314" gradientUnits="userSpaceOnUse">
<stop stop-color="white" stop-opacity="0.34"/>
<stop offset="1" stop-color="white" stop-opacity="0"/>
</linearGradient>
</defs>
</svg>
