<svg width="205" height="56" viewBox="0 0 205 56" fill="none" xmlns="http://www.w3.org/2000/svg">
<path d="M57.0352 6.6798H66.4382C68.8275 6.6798 70.5745 7.32208 71.7049 8.42681C72.8096 9.37739 73.2978 10.662 73.2978 11.9208C73.2978 12.409 73.2978 13.0256 73.1436 13.5137C72.8353 14.3101 72.3472 15.1065 71.7049 15.7488C71.3966 16.0571 71.0626 16.237 70.7543 16.3911C71.859 16.6994 72.8353 17.3417 73.6317 18.1381C74.274 18.9346 74.5823 19.8851 74.5823 21.3238C74.5823 22.1203 74.4282 23.0709 74.0942 23.7131C73.7859 24.3554 73.1436 24.9977 72.5013 25.4601C71.7049 25.9483 70.9085 26.2566 70.112 26.5649C69.1615 26.8732 68.031 26.8732 66.9263 26.8732H57.1893V6.62842H57.0352V6.6798ZM65.6417 14.9524C66.4382 14.9524 67.2346 14.7983 68.031 14.4643C68.6733 14.156 68.9816 13.5137 68.9816 12.8714C68.9816 12.2291 68.6733 11.5868 68.1852 11.2785C67.5429 10.7904 66.7465 10.6363 65.95 10.7904H61.4798V15.0809H65.6161V14.9524H65.6417ZM66.7465 23.0965C67.5429 23.0965 68.3393 22.9424 69.1358 22.6084C69.778 22.3001 70.0863 21.6578 69.9322 20.8614C69.9322 20.2191 69.6239 19.5768 69.1358 19.2685C68.6476 18.9602 67.6971 18.6263 66.5923 18.6263H61.3256V23.0965H66.7465Z" fill="#F3BA2F"/>
<path d="M80.1309 6.67969H84.6012V27.0786H80.1309V6.67969Z" fill="#F3BA2F"/>
<path d="M91.4609 6.67969H95.5972L105.154 19.2684V6.67969H109.599V27.0786H105.797L95.7514 14.1559V27.0786H91.4609V6.67969Z" fill="#F3BA2F"/>
<path d="M123.165 6.52539H127.301L136.062 27.0784H131.438L129.536 22.454H120.93L119.029 27.0784H114.404L123.165 6.52539ZM127.944 18.626L125.246 11.9463L122.548 18.626H127.944Z" fill="#F3BA2F"/>
<path d="M140.84 6.67969H144.976L154.533 19.2684V6.67969H159.004V27.0786H155.176L145.284 14.1559V27.0786H140.84V6.67969Z" fill="#F3BA2F"/>
<path d="M175.24 27.3871C173.801 27.3871 172.363 27.0788 171.104 26.5906C168.56 25.4859 166.634 23.5591 165.529 21.0156C165.041 19.7311 164.732 18.318 164.732 16.8793C164.732 14.1817 165.837 11.4585 167.764 9.40316C168.715 8.45258 169.845 7.65615 171.104 7.16801C172.543 6.52573 173.981 6.37158 175.394 6.37158C176.191 6.37158 177.141 6.37158 177.938 6.52573C178.734 6.67988 179.376 6.83403 180.019 7.16801C180.661 7.47631 181.303 7.8103 181.766 8.1186C182.254 8.42689 182.87 8.91503 183.359 9.40316L180.661 12.743C179.865 12.1007 179.068 11.4585 178.272 10.996C177.475 10.5336 176.525 10.3537 175.574 10.3537C174.778 10.3537 173.981 10.5079 173.185 10.8419C172.388 11.1502 171.746 11.6383 171.284 12.2806C170.821 12.9229 170.333 13.5651 169.999 14.3616C169.691 15.158 169.511 15.9544 169.511 16.7509C169.511 17.5473 169.665 18.4979 169.999 19.2943C170.333 20.0907 170.641 20.733 171.284 21.3753C172.388 22.6599 173.981 23.2765 175.574 23.2765C176.525 23.2765 177.655 23.1223 178.606 22.6342C179.402 22.146 180.353 21.5295 180.995 20.8872L183.847 23.7389C183.359 24.227 182.742 24.8436 182.254 25.3318C181.612 25.8199 180.969 26.1282 180.353 26.4365C179.71 26.7448 178.914 27.0788 178.118 27.2329C176.987 27.3871 176.037 27.3871 175.24 27.3871Z" fill="#F3BA2F"/>
<path d="M188.959 6.67969H204.245V10.6618H193.249V14.7981H202.961V18.7803H193.249V23.0964H204.399V27.0786H188.959V6.67969Z" fill="#F3BA2F"/>
<path d="M62.7643 47.1434C61.6596 47.1434 60.5292 46.9892 59.5786 46.5011C58.628 46.1928 57.6774 45.5505 56.7012 44.7541L58.294 43.0071C58.9363 43.6494 59.5786 43.9576 60.375 44.4458C61.1715 44.7541 61.9679 44.9339 62.7643 44.9339C63.4066 44.9339 64.0489 44.7798 64.6655 44.4458C65.1536 44.1375 65.3078 43.6494 65.3078 43.1612C65.3078 43.0071 65.3078 42.6731 65.1536 42.5189C64.9995 42.3648 64.8453 42.0308 64.6655 41.8767C64.3572 41.7225 64.0232 41.5684 63.7149 41.3885C63.2268 41.2344 62.6102 41.0802 62.122 40.9004C61.4798 40.7462 60.6833 40.5921 60.041 40.2581C59.5529 40.1039 58.9363 39.77 58.6023 39.4617C58.294 39.1534 57.96 38.8194 57.6517 38.3569C57.3434 37.7147 57.3435 37.0724 57.3435 36.6099C57.3435 35.9677 57.4976 35.5052 57.6517 34.8629C57.8059 34.3748 58.294 33.9123 58.6023 33.5784C59.0905 33.2701 59.5529 32.9361 60.1952 32.7819C60.8375 32.6278 61.4798 32.4736 62.0963 32.4736C63.0469 32.4736 63.9975 32.6278 64.9738 32.9618C65.7702 33.2701 66.5666 33.7582 67.3631 34.2463L66.0785 36.1475C65.4362 35.6594 64.7939 35.3511 64.1773 35.0428C63.5351 34.7345 62.8928 34.7345 62.2762 34.7345C61.6339 34.7345 60.9916 34.8886 60.5292 35.2226C60.2209 35.5309 59.8869 36.019 59.8869 36.5072C59.8869 36.8155 59.8869 36.9953 60.041 37.3036C60.1952 37.4577 60.3493 37.7917 60.5292 37.9459C60.8375 38.1 61.1715 38.2542 61.6339 38.434C62.122 38.5882 62.5845 38.7423 63.3809 38.9222C64.0232 39.0763 64.6655 39.2304 65.4619 39.5644C65.95 39.7186 66.4125 40.0526 66.9006 40.3609C67.2089 40.6692 67.5429 41.1573 67.697 41.4656C67.8512 41.9537 68.0053 42.4162 68.0053 43.0585C68.0053 43.7007 67.8512 44.343 67.697 44.8055C67.3888 45.2936 67.0548 45.756 66.5923 46.2442C66.1042 46.5525 65.6417 46.8865 64.9995 47.0406C64.203 46.9892 63.4066 47.1434 62.7643 47.1434Z" fill="#F3BA2F"/>
<path d="M70.7285 32.6538H73.4518L77.7422 39.3335L82.2125 32.6538H84.9101V46.9896H82.3667V36.636L77.8964 43.3157H77.7422L73.2976 36.636V46.9896H70.7285V32.6538Z" fill="#F3BA2F"/>
<path d="M93.5158 32.4995H95.9051L102.122 46.8353H99.4248L97.9861 43.3412H91.3064L89.8677 46.8353H87.3242L93.5158 32.4995ZM97.1897 41.2602L94.6462 35.5311L92.257 41.2602H97.1897Z" fill="#F3BA2F"/>
<path d="M104.666 32.6538H111.037C111.834 32.6538 112.63 32.808 113.427 32.9621C114.069 33.1162 114.711 33.6044 115.174 34.0668C115.482 34.3751 115.816 34.8633 116.124 35.5055C116.278 35.9937 116.432 36.6103 116.432 37.2526C116.432 37.7407 116.278 38.3573 116.124 38.8454C115.97 39.3335 115.636 39.6418 115.482 40.13C115.174 40.4383 114.84 40.7723 114.377 41.0806C113.889 41.3888 113.427 41.5687 112.938 41.7228L116.766 47.1437H113.735L110.241 42.211H107.055V47.1437H104.512L104.666 32.6538ZM110.883 39.6675C111.68 39.6675 112.476 39.5134 112.964 39.0252C113.452 38.5371 113.761 37.9205 113.761 37.2782C113.761 36.636 113.452 35.9937 112.964 35.5312C112.322 35.0431 111.525 34.8889 110.729 34.8889H107.055V39.6675H110.883Z" fill="#F3BA2F"/>
<path d="M122.984 34.8889H118.359V32.6538H129.998V34.8889H125.373V46.9896H122.83L122.984 34.8889Z" fill="#F3BA2F"/>
<path d="M145.465 47.1435C144.514 47.1435 143.564 46.9894 142.587 46.5012C140.84 45.7048 139.402 44.4202 138.759 42.6732C138.451 41.7227 138.117 40.7721 138.271 39.7958C138.271 38.8452 138.425 37.8946 138.759 36.9184C139.402 35.1714 140.84 33.7327 142.587 32.9362C143.538 32.6279 144.489 32.2939 145.619 32.2939C146.261 32.2939 146.904 32.2939 147.366 32.4481C147.854 32.6022 148.317 32.7564 148.805 32.9362C149.293 33.0904 149.601 33.4244 150.089 33.5785C150.398 33.8868 150.886 34.2208 151.194 34.5291L149.601 36.4302C149.113 35.9421 148.496 35.4797 147.854 35.1457C147.212 34.8374 146.415 34.6575 145.619 34.6575C144.977 34.6575 144.334 34.8117 143.718 34.9658C143.076 35.2741 142.613 35.6081 142.125 36.0706C141.637 36.5587 141.329 37.0212 141.174 37.6634C141.02 38.3057 140.866 38.948 140.866 39.5646C140.866 40.2069 141.02 40.8492 141.174 41.4657C141.329 42.0823 141.663 42.5705 142.125 43.0586C142.613 43.5467 143.076 43.855 143.718 44.1633C144.36 44.4716 145.002 44.6515 145.619 44.4716C146.415 44.4716 147.212 44.3175 147.854 43.9835C148.496 43.6752 149.139 43.1871 149.755 42.5448L151.348 44.1376C151.04 44.4459 150.552 44.9341 150.243 45.2424C149.755 45.5507 149.447 45.8846 148.959 46.0388C148.471 46.1929 148.008 46.5269 147.366 46.5269C146.724 47.1435 146.081 47.1435 145.465 47.1435Z" fill="#F3BA2F"/>
<path d="M153.891 32.6538H156.28V38.5371H163.139V32.6538H165.683V46.9896H163.139V40.9264H156.28V46.9896H153.891V32.6538Z" fill="#F3BA2F"/>
<path d="M174.444 32.4995H176.833L183.05 46.8353H180.353L178.914 43.3412H172.234L170.795 46.8353H168.252L174.444 32.4995ZM177.963 41.2602L175.574 35.5311L173.185 41.2602H177.963Z" fill="#F3BA2F"/>
<path d="M185.594 32.6536H188.163V46.9893H185.594V32.6536Z" fill="#F3BA2F"/>
<path d="M191.965 32.6538H194.2L201.856 42.5193V32.6538H204.399V46.9896H202.318L194.534 36.7901V46.9896H191.965V32.6538Z" fill="#F3BA2F"/>
<path d="M29.0055 46.0388V52.2561L23.5846 55.4418L18.3179 52.2561V46.0388L23.5846 49.2245L29.0055 46.0388ZM0 24.5352L5.26672 27.7209V38.3828L14.3357 43.8037V50.021L0 41.5685V24.5352ZM47.1692 24.5352V41.5942L32.6793 50.0467V43.8294L41.7484 38.4085V27.7466L47.1692 24.5352ZM32.6537 16.0828L38.0745 19.2685V25.4858L29.0055 30.9066V41.7227L23.7388 44.9084L18.4977 41.7227V30.8809L9.09472 25.4601V19.2428L14.5156 16.0571L23.5846 21.4779L32.6537 16.0828ZM9.09472 29.9304L14.3614 33.1161V39.3334L9.09472 36.1477V29.9304ZM38.0745 29.9304V36.1477L32.8078 39.3334V33.1161L38.0745 29.9304ZM5.26672 10.6619L10.6876 13.8476L5.26672 17.0333V23.2506L0 20.0649V13.8476L5.26672 10.6619ZM41.9025 10.6619L47.3234 13.8476V20.0649L41.9025 23.2506V17.0333L36.6358 13.8476L41.9025 10.6619ZM23.5846 10.6619L29.0055 13.8476L23.5846 17.0333L18.3179 13.8476L23.5846 10.6619ZM23.5846 0L38.0745 8.45244L32.8078 11.6382L23.7388 6.21729L14.4899 11.6382L9.22318 8.45244L23.5846 0Z" fill="#F3BA2F"/>
</svg>
