<svg width="158" height="158" viewBox="0 0 158 158" fill="none" xmlns="http://www.w3.org/2000/svg">
<path d="M86.3779 86.944V110.06H71.6837V86.944V86.4064H71.1461H48.0295V71.7121H71.1461H71.6837V71.1745V48.058H86.3779V71.1745V71.7121H86.9155H110.032V86.4064H86.9155H86.3779V86.944ZM79.0308 157.369C68.1936 157.369 58.0162 155.313 48.4934 151.203C38.9611 147.09 30.6744 141.478 23.6283 134.367C16.581 127.254 11.0003 118.933 6.88641 109.399C2.77687 99.8758 0.721188 89.7641 0.721188 79.0592C0.721188 58.5592 7.50614 40.9494 21.0794 26.2016C34.5225 11.5951 51.0249 3.26608 70.6085 1.20169V23.7929C57.1504 25.7254 45.919 31.8453 36.9353 42.1405C27.8456 52.5571 23.3002 64.8721 23.3002 79.0592C23.3002 94.4455 28.7447 107.592 39.6213 118.469C50.4979 129.345 63.6445 134.79 79.0308 134.79C87.7828 134.79 95.9783 132.933 103.61 129.216C111.092 125.573 117.399 120.649 122.523 114.446L142.111 125.746C135.116 135.306 126.164 142.943 115.248 148.658C104.158 154.464 92.0889 157.369 79.0308 157.369ZM155.773 95.7113C154.769 100.859 153.16 105.702 150.948 110.24L131.337 98.9264C132.453 95.8751 133.296 92.7333 133.866 89.5014C134.463 86.1182 134.761 82.6374 134.761 79.0592C134.761 64.8721 130.216 52.5571 121.126 42.1405C112.143 31.8453 100.911 25.7254 87.4531 23.7929V1.20169C107.037 3.26608 123.539 11.5951 136.982 26.2016C150.555 40.9494 157.34 58.5592 157.34 79.0592C157.34 84.8086 156.818 90.3591 155.773 95.7113Z" fill="url(#paint0_linear_411_1501)" stroke="url(#paint1_linear_411_1501)" stroke-width="1.07519"/>
<defs>
<linearGradient id="paint0_linear_411_1501" x1="79.0308" y1="-48.6896" x2="79.0308" y2="186.131" gradientUnits="userSpaceOnUse">
<stop stop-color="#F3511F"/>
<stop offset="1" stop-color="#F3511F" stop-opacity="0"/>
</linearGradient>
<linearGradient id="paint1_linear_411_1501" x1="79.0308" y1="-67.8817" x2="79.0308" y2="204.195" gradientUnits="userSpaceOnUse">
<stop stop-color="white" stop-opacity="0.34"/>
<stop offset="1" stop-color="white" stop-opacity="0"/>
</linearGradient>
</defs>
</svg>
