<svg width="220" height="169" viewBox="0 0 220 169" fill="none" xmlns="http://www.w3.org/2000/svg">
<path d="M109.999 77.7619L127.761 67.2674L109.999 37.8037L92.237 67.2674L109.999 77.7619ZM54.2014 124.502C54.2014 124.8 53.9513 125.05 53.653 125.05H43.0207C43.2901 127.676 45.2626 130.071 48.0434 130.071C49.9485 130.071 51.3533 129.35 52.4214 127.83C52.5753 127.618 52.8062 127.484 53.0949 127.609C53.2489 127.676 53.3643 127.82 53.3932 127.993C53.4221 128.167 53.3739 128.263 53.3258 128.359C52.2578 130.225 50.1313 131.139 48.0434 131.139C44.464 131.139 41.9238 127.945 41.9238 124.521C41.9238 121.096 44.4736 117.903 48.0434 117.903C51.6131 117.893 54.2014 121.077 54.2014 124.502ZM53.066 123.973C52.8351 121.347 50.8241 118.951 48.0434 118.951C45.2626 118.951 43.2901 121.347 43.0207 123.973H53.066ZM67.0948 118.163C67.4027 118.163 67.624 118.432 67.624 118.692C67.624 119 67.3931 119.221 67.0948 119.221H64.2467V130.398C64.2467 130.668 64.0158 130.927 63.7175 130.927C63.4096 130.927 63.1883 130.658 63.1883 130.398V119.221H60.4461C60.1382 119.221 59.9169 118.99 59.9169 118.692C59.9169 118.422 60.1478 118.163 60.4461 118.163H63.1883V114.074C63.1883 113.815 63.3615 113.574 63.6213 113.536C63.9773 113.478 64.2564 113.719 64.2564 114.055V118.163H67.0948ZM84.4817 123.559V130.331C84.4817 130.639 84.2123 130.86 83.9525 130.86C83.6446 130.86 83.4233 130.629 83.4233 130.331V123.559C83.4233 121.279 82.1339 119 79.5841 119C76.3127 119 74.9079 121.847 75.1003 124.781C75.1003 124.858 75.1388 125.194 75.1388 125.233V130.312C75.1388 130.571 74.9656 130.812 74.7058 130.85C74.3498 130.908 74.0708 130.668 74.0708 130.331V108.091C74.0708 107.822 74.3017 107.562 74.6 107.562C74.9079 107.562 75.1292 107.832 75.1292 108.091V120.673C76.0433 119.038 77.679 117.932 79.5745 117.932C82.692 117.932 84.4817 120.673 84.4817 123.559ZM103.533 124.502C103.533 124.8 103.283 125.05 102.985 125.05H92.3525C92.6219 127.676 94.5944 130.071 97.3751 130.071C99.2803 130.071 100.685 129.35 101.753 127.83C101.907 127.618 102.138 127.484 102.427 127.609C102.581 127.676 102.696 127.82 102.725 127.993C102.754 128.167 102.706 128.263 102.658 128.359C101.59 130.225 99.4631 131.139 97.3751 131.139C93.7957 131.139 91.2556 127.945 91.2556 124.521C91.2556 121.096 93.8054 117.903 97.3751 117.903C100.945 117.893 103.524 121.077 103.533 124.502ZM102.388 123.973C102.157 121.347 100.146 118.951 97.3655 118.951C94.5847 118.951 92.6122 121.347 92.3428 123.973H102.388ZM116.581 118.653C116.581 119 116.388 119.182 116.09 119.221C112.972 119.673 111.567 122.222 111.567 125.194V130.273C111.567 130.533 111.394 130.773 111.134 130.812C110.778 130.87 110.499 130.629 110.499 130.292V118.701C110.499 118.442 110.673 118.201 110.932 118.163C111.288 118.105 111.567 118.345 111.567 118.682V121.039C112.443 119.557 114.194 118.153 116.013 118.153C116.273 118.163 116.581 118.345 116.581 118.653ZM134.035 124.502C134.035 124.8 133.785 125.05 133.486 125.05H122.854C123.123 127.676 125.096 130.071 127.877 130.071C129.782 130.071 131.187 129.35 132.255 127.83C132.409 127.618 132.64 127.484 132.928 127.609C133.082 127.676 133.198 127.82 133.226 127.993C133.255 128.167 133.207 128.263 133.159 128.359C132.091 130.225 129.965 131.139 127.877 131.139C124.297 131.139 121.757 127.945 121.757 124.521C121.757 121.096 124.307 117.903 127.877 117.903C131.446 117.893 134.025 121.077 134.035 124.502ZM132.89 123.973C132.659 121.347 130.648 118.951 127.867 118.951C125.086 118.951 123.114 121.347 122.844 123.973H132.89ZM151.191 118.788V130.398C151.191 130.706 150.921 130.927 150.661 130.927C150.354 130.927 150.132 130.696 150.132 130.398V128.195C149.257 129.946 147.698 131.197 145.716 131.197C142.56 131.197 140.809 128.455 140.809 125.569V118.759C140.809 118.49 141.04 118.23 141.338 118.23C141.646 118.23 141.867 118.499 141.867 118.759V125.569C141.867 127.849 143.156 130.129 145.706 130.129C149.286 130.129 150.123 126.781 150.123 123.097V118.759C150.123 118.451 150.431 118.143 150.806 118.249C151.037 118.326 151.191 118.547 151.191 118.788ZM178.074 123.521V130.331C178.074 130.639 177.805 130.86 177.545 130.86C177.237 130.86 177.016 130.629 177.016 130.331V123.521C177.016 121.241 175.727 119 173.177 119C169.982 119 168.76 122.424 168.76 125.079V130.321C168.76 130.629 168.491 130.85 168.231 130.85C167.923 130.85 167.702 130.62 167.702 130.321V123.511C167.702 121.231 166.413 118.99 163.863 118.99C160.63 118.99 159.302 121.539 159.417 124.925C159.417 125.002 159.456 125.156 159.417 125.194V130.312C159.417 130.571 159.244 130.812 158.984 130.85C158.628 130.908 158.349 130.668 158.349 130.331V118.701C158.349 118.442 158.523 118.201 158.782 118.163C159.138 118.105 159.417 118.345 159.417 118.682V120.625C160.332 118.99 161.967 117.922 163.863 117.922C166.028 117.922 167.702 119.288 168.385 121.308C169.261 119.327 170.973 117.922 173.177 117.922C176.285 117.932 178.074 120.635 178.074 123.521Z" fill="white"/>
<path d="M110 95.6534L127.772 70.6338L110 81.1187L92.2383 70.6338L110 95.6534Z" fill="white"/>
</svg>
