<svg width="148" height="140" viewBox="0 0 148 140" fill="none" xmlns="http://www.w3.org/2000/svg">
<mask id="path-1-inside-1_411_1493" fill="white">
<path d="M21.9305 139.66L20.8305 130.31L19.3638 129.577C18.8749 129.333 18.2027 128.905 17.3471 128.294L8.54713 131.96L0.480469 118.027L7.99713 112.344V108.494L0.480469 102.627L8.54713 88.6937L17.3471 92.3604C17.9582 91.9937 18.5388 91.6271 19.0888 91.2604C19.6388 90.8937 20.2193 90.5882 20.8305 90.3437L21.9305 80.9937H38.0638L39.1638 90.3437L40.6304 91.0771C40.8749 91.1993 41.1804 91.3826 41.5471 91.6271L42.6471 92.3604L51.4471 88.6937L59.5138 102.627L51.9971 108.31V112.344L92.1471 89.0604L83.8971 103.544L86.0971 105.194L57.1304 122.06L51.4471 131.96L42.6471 128.294C42.036 128.66 41.4554 129.027 40.9054 129.394C40.3554 129.76 39.7749 130.066 39.1638 130.31L38.0638 139.66H21.9305ZM29.9971 99.327C26.9416 99.327 24.3443 100.396 22.2055 102.535C20.0666 104.674 18.9971 107.271 18.9971 110.327C18.9971 113.383 20.0666 115.98 22.2055 118.119C24.3443 120.258 26.9416 121.327 29.9971 121.327C33.0527 121.327 35.6499 120.258 37.7888 118.119C39.9277 115.98 40.9971 113.383 40.9971 110.327C40.9971 107.271 39.9277 104.674 37.7888 102.535C35.6499 100.396 33.0527 99.327 29.9971 99.327ZM58.5971 58.9938L57.4971 49.6438C57.2527 49.3993 56.9471 49.216 56.5804 49.0938C56.2138 48.9715 55.9082 48.7882 55.6638 48.5438V88.8771L52.9138 84.1104L44.6638 87.5937V50.1938L37.3304 37.3604L44.6638 31.6771V27.8271L37.1471 21.9605L45.2138 8.02714L54.0138 11.6938C54.6249 11.3271 55.2054 10.9605 55.7554 10.5938C56.3054 10.2271 56.886 9.92158 57.4971 9.67714L58.5971 0.327148H74.7304L75.8304 9.67714L77.2971 10.4105C77.786 10.6549 78.4582 11.0827 79.3138 11.6938L88.1138 8.02714L96.1804 21.9605L88.6638 27.6438V31.4938L96.1804 37.3604L88.1138 51.2938L79.3138 47.6271C78.7027 47.9938 78.1221 48.3604 77.5721 48.7271C77.0221 49.0938 76.4415 49.3993 75.8304 49.6438L74.7304 58.9938H58.5971ZM66.6638 18.6605C63.6082 18.6605 61.011 19.7299 58.8721 21.8688C56.7332 24.0077 55.6638 26.6049 55.6638 29.6605C55.6638 32.716 56.7332 35.3132 58.8721 37.4521C61.011 39.591 63.6082 40.6604 66.6638 40.6604C69.7193 40.6604 72.3165 39.591 74.4554 37.4521C76.5943 35.3132 77.6638 32.716 77.6638 29.6605C77.6638 26.6049 76.5943 24.0077 74.4554 21.8688C72.3165 19.7299 69.7193 18.6605 66.6638 18.6605ZM109.93 139.66L108.83 130.31L107.364 129.577C106.875 129.333 106.203 128.905 105.347 128.294L96.5471 131.96L88.4804 118.027L95.9971 112.344V108.494L88.4804 102.81L96.5471 88.6937L105.347 92.3604C105.714 92.1159 105.958 91.9632 106.08 91.9021L108.83 90.5271L69.2304 62.6604H78.0304L78.7638 56.0604L114.514 80.9937H126.064L127.164 90.3437L128.63 91.0771C128.875 91.1993 129.18 91.3826 129.547 91.6271L130.647 92.3604L139.447 88.6937L147.514 102.627L139.997 108.31V112.16L147.514 118.027L139.447 131.96L130.647 128.294C130.036 128.66 129.455 129.027 128.905 129.394C128.355 129.76 127.775 130.066 127.164 130.31L126.064 139.66H109.93ZM117.997 99.327C114.942 99.327 112.344 100.396 110.205 102.535C108.067 104.674 106.997 107.271 106.997 110.327C106.997 113.383 108.067 115.98 110.205 118.119C112.344 120.258 114.942 121.327 117.997 121.327C121.053 121.327 123.65 120.258 125.789 118.119C127.928 115.98 128.997 113.383 128.997 110.327C128.997 107.271 127.928 104.674 125.789 102.535C123.65 100.396 121.053 99.327 117.997 99.327Z"/>
</mask>
<path d="M21.9305 139.66L20.8305 130.31L19.3638 129.577C18.8749 129.333 18.2027 128.905 17.3471 128.294L8.54713 131.96L0.480469 118.027L7.99713 112.344V108.494L0.480469 102.627L8.54713 88.6937L17.3471 92.3604C17.9582 91.9937 18.5388 91.6271 19.0888 91.2604C19.6388 90.8937 20.2193 90.5882 20.8305 90.3437L21.9305 80.9937H38.0638L39.1638 90.3437L40.6304 91.0771C40.8749 91.1993 41.1804 91.3826 41.5471 91.6271L42.6471 92.3604L51.4471 88.6937L59.5138 102.627L51.9971 108.31V112.344L92.1471 89.0604L83.8971 103.544L86.0971 105.194L57.1304 122.06L51.4471 131.96L42.6471 128.294C42.036 128.66 41.4554 129.027 40.9054 129.394C40.3554 129.76 39.7749 130.066 39.1638 130.31L38.0638 139.66H21.9305ZM29.9971 99.327C26.9416 99.327 24.3443 100.396 22.2055 102.535C20.0666 104.674 18.9971 107.271 18.9971 110.327C18.9971 113.383 20.0666 115.98 22.2055 118.119C24.3443 120.258 26.9416 121.327 29.9971 121.327C33.0527 121.327 35.6499 120.258 37.7888 118.119C39.9277 115.98 40.9971 113.383 40.9971 110.327C40.9971 107.271 39.9277 104.674 37.7888 102.535C35.6499 100.396 33.0527 99.327 29.9971 99.327ZM58.5971 58.9938L57.4971 49.6438C57.2527 49.3993 56.9471 49.216 56.5804 49.0938C56.2138 48.9715 55.9082 48.7882 55.6638 48.5438V88.8771L52.9138 84.1104L44.6638 87.5937V50.1938L37.3304 37.3604L44.6638 31.6771V27.8271L37.1471 21.9605L45.2138 8.02714L54.0138 11.6938C54.6249 11.3271 55.2054 10.9605 55.7554 10.5938C56.3054 10.2271 56.886 9.92158 57.4971 9.67714L58.5971 0.327148H74.7304L75.8304 9.67714L77.2971 10.4105C77.786 10.6549 78.4582 11.0827 79.3138 11.6938L88.1138 8.02714L96.1804 21.9605L88.6638 27.6438V31.4938L96.1804 37.3604L88.1138 51.2938L79.3138 47.6271C78.7027 47.9938 78.1221 48.3604 77.5721 48.7271C77.0221 49.0938 76.4415 49.3993 75.8304 49.6438L74.7304 58.9938H58.5971ZM66.6638 18.6605C63.6082 18.6605 61.011 19.7299 58.8721 21.8688C56.7332 24.0077 55.6638 26.6049 55.6638 29.6605C55.6638 32.716 56.7332 35.3132 58.8721 37.4521C61.011 39.591 63.6082 40.6604 66.6638 40.6604C69.7193 40.6604 72.3165 39.591 74.4554 37.4521C76.5943 35.3132 77.6638 32.716 77.6638 29.6605C77.6638 26.6049 76.5943 24.0077 74.4554 21.8688C72.3165 19.7299 69.7193 18.6605 66.6638 18.6605ZM109.93 139.66L108.83 130.31L107.364 129.577C106.875 129.333 106.203 128.905 105.347 128.294L96.5471 131.96L88.4804 118.027L95.9971 112.344V108.494L88.4804 102.81L96.5471 88.6937L105.347 92.3604C105.714 92.1159 105.958 91.9632 106.08 91.9021L108.83 90.5271L69.2304 62.6604H78.0304L78.7638 56.0604L114.514 80.9937H126.064L127.164 90.3437L128.63 91.0771C128.875 91.1993 129.18 91.3826 129.547 91.6271L130.647 92.3604L139.447 88.6937L147.514 102.627L139.997 108.31V112.16L147.514 118.027L139.447 131.96L130.647 128.294C130.036 128.66 129.455 129.027 128.905 129.394C128.355 129.76 127.775 130.066 127.164 130.31L126.064 139.66H109.93ZM117.997 99.327C114.942 99.327 112.344 100.396 110.205 102.535C108.067 104.674 106.997 107.271 106.997 110.327C106.997 113.383 108.067 115.98 110.205 118.119C112.344 120.258 114.942 121.327 117.997 121.327C121.053 121.327 123.65 120.258 125.789 118.119C127.928 115.98 128.997 113.383 128.997 110.327C128.997 107.271 127.928 104.674 125.789 102.535C123.65 100.396 121.053 99.327 117.997 99.327Z" fill="url(#paint0_linear_411_1493)" stroke="url(#paint1_linear_411_1493)" stroke-width="2" mask="url(#path-1-inside-1_411_1493)"/>
<defs>
<linearGradient id="paint0_linear_411_1493" x1="73.9971" y1="-43.3384" x2="73.9971" y2="164.662" gradientUnits="userSpaceOnUse">
<stop stop-color="#F3511F"/>
<stop offset="1" stop-color="#F3511F" stop-opacity="0"/>
</linearGradient>
<linearGradient id="paint1_linear_411_1493" x1="73.9971" y1="-60.3384" x2="73.9971" y2="180.662" gradientUnits="userSpaceOnUse">
<stop stop-color="white" stop-opacity="0.34"/>
<stop offset="1" stop-color="white" stop-opacity="0"/>
</linearGradient>
</defs>
</svg>
