<svg width="180" height="46" viewBox="0 0 180 46" fill="none" xmlns="http://www.w3.org/2000/svg">
<path d="M85.5889 36H82.2051L80.9746 32.4697H71.8633L70.6328 36H67.2344L74.5293 15.5068H78.3672L85.5889 36ZM76.4482 19.4033L72.9619 29.3643H79.9053L76.4482 19.4033ZM94.9199 22.2158C98.1865 22.2158 101.189 24.3838 101.189 29.5107V36H97.8057V29.5107C97.8057 26.3027 96.3115 25.2773 94.4072 25.2773C92.7373 25.2773 91.5068 26.2441 90.877 27.2842V36H87.4932V22.5381H90.7598V23.6807C91.9316 22.7725 93.3818 22.2158 94.9199 22.2158ZM110.989 36.3223C106.99 36.3223 103.782 33.3193 103.782 29.2617C103.782 25.2188 107.005 22.2158 110.989 22.2158C114.988 22.2158 118.211 25.2334 118.211 29.2617C118.211 33.3193 115.003 36.3223 110.989 36.3223ZM110.989 33.2314C113.069 33.2314 114.944 31.5615 114.944 29.2617C114.944 26.9619 113.055 25.3066 110.989 25.3066C108.938 25.3066 107.049 26.9619 107.049 29.2617C107.049 31.5615 108.924 33.2314 110.989 33.2314ZM131.321 23.5342V22.5381H134.632V36.293C134.632 40.3652 131.951 43.4854 127.747 43.4854C125.022 43.4854 122.576 42.0059 121.404 39.8818L124.188 38.1826C124.803 39.3105 125.945 40.292 127.747 40.292C130.164 40.292 131.307 38.4902 131.307 36.2344V35.0039C130.193 35.8389 128.758 36.3223 127.234 36.3223C123.411 36.3223 120.335 33.2314 120.335 29.2764C120.335 25.3359 123.367 22.2158 127.234 22.2158C128.758 22.2158 130.193 22.6992 131.321 23.5342ZM127.732 33.2754C129.227 33.2754 130.486 32.4844 131.189 31.3564V27.1963C130.486 26.0537 129.227 25.2627 127.732 25.2627C125.564 25.2627 123.704 27.0938 123.704 29.2764C123.704 31.4297 125.55 33.2754 127.732 33.2754ZM151.609 29.2617C151.609 29.7451 151.565 30.2139 151.478 30.6533H140.901C141.429 32.5283 143.26 33.5098 145.208 33.5098C146.351 33.5098 147.581 33.1289 148.445 32.6455L149.881 35.0918C148.519 35.9268 146.922 36.3223 145.091 36.3223C140.799 36.3223 137.356 33.6123 137.356 29.2617C137.356 25.3066 140.374 22.2158 144.52 22.2158C148.562 22.2158 151.609 25.3066 151.609 29.2617ZM144.52 24.9404C142.454 24.9404 141.194 26.2881 140.843 28.0312H148.196C147.83 26.2881 146.482 24.9404 144.52 24.9404ZM171.517 22.2158C175.032 22.2158 178.006 24.3838 178.006 29.5107V36H174.622V29.5107C174.622 26.3027 172.601 25.4238 171.019 25.4238C169.568 25.4238 168.265 26.2588 167.488 27.2109C167.635 27.8994 167.708 28.6611 167.708 29.5107V36H164.324V29.5107C164.324 26.3027 162.713 25.4238 160.823 25.4238C159.432 25.4238 158.201 26.1416 157.41 27.1523V36H154.026V22.5381H157.293V23.6221C158.377 22.7139 159.725 22.2158 161.468 22.2158C163.475 22.2158 165.218 22.9189 166.36 24.4863C167.518 23.3291 169.378 22.2158 171.517 22.2158Z" fill="white"/>
<g clip-path="url(#clip0_487_337)">
<path d="M4.74371 23.521V18.9334L15.1268 13.0675V19.9985L4.74371 25.8055V23.521ZM15.1268 25.2738V44.6601L17.4982 46L35 36.1154L30.2563 33.0671L19.8719 38.9329V13.0675L30.2563 18.9334L35 15.8846L17.4995 6L0 15.8846V36.1154L4.74371 38.7951V31.0781L15.1268 25.2738Z" fill="white"/>
</g>
<defs>
<clipPath id="clip0_487_337">
<rect width="35" height="40" fill="white" transform="translate(0 6)"/>
</clipPath>
</defs>
</svg>
