<svg width="148" height="147" viewBox="0 0 148 147" fill="none" xmlns="http://www.w3.org/2000/svg">
<path d="M142.575 69.7974L142.575 69.7969L78.0419 5.0807L142.575 69.7974ZM142.575 69.7974C145.29 72.5116 146.645 75.8359 146.645 79.8022C146.645 83.7685 145.29 87.0927 142.575 89.807L90.1419 142.24C87.4292 144.953 84.0751 146.311 80.0455 146.311M142.575 69.7974L80.0455 146.311M80.0455 146.311C76.0158 146.311 72.6617 144.953 69.949 142.24M80.0455 146.311L69.949 142.24M69.949 142.24L5.41566 77.707M69.949 142.24L5.41566 77.707M5.41566 77.707C4.11796 76.4092 3.08327 74.8736 2.31255 73.095M5.41566 77.707L2.31255 73.095M2.31255 73.095C1.54639 71.327 1.16211 69.4393 1.16211 67.4272M2.31255 73.095L1.16211 67.4272M1.16211 67.4272V14.9938M1.16211 67.4272V14.9938M1.16211 14.9938C1.16211 11.0941 2.54479 7.76824 5.324 4.98904M1.16211 14.9938L5.324 4.98904M5.324 4.98904C8.1032 2.20983 11.4291 0.827148 15.3288 0.827148M5.324 4.98904L15.3288 0.827148M15.3288 0.827148H67.7621M15.3288 0.827148H67.7621M67.7621 0.827148C69.7743 0.827148 71.6619 1.21143 73.43 1.97759M67.7621 0.827148L73.43 1.97759M73.43 1.97759C75.2083 2.74821 76.7438 3.78273 78.0414 5.0802L73.43 1.97759ZM79.6914 132.68L80.045 133.035L80.399 132.681L132.832 80.2474L133.185 79.8943L132.833 79.5408L68.1162 14.6408L67.9697 14.4938H67.7621H15.3288H14.8288V14.9938V67.4272V67.6339L14.9747 67.7802L79.6914 132.68ZM41.1002 40.7653C39.0562 42.8093 36.5866 43.8272 33.6621 43.8272C30.7377 43.8272 28.2681 42.8093 26.224 40.7653C24.1799 38.7212 23.1621 36.2516 23.1621 33.3272C23.1621 30.4027 24.1799 27.9331 26.224 25.889C28.2681 23.845 30.7377 22.8272 33.6621 22.8272C36.5866 22.8272 39.0562 23.845 41.1002 25.889C43.1443 27.9331 44.1621 30.4027 44.1621 33.3272C44.1621 36.2516 43.1443 38.7212 41.1002 40.7653Z" fill="url(#paint0_linear_411_1517)" stroke="url(#paint1_linear_411_1517)"/>
<defs>
<linearGradient id="paint0_linear_411_1517" x1="73.9038" y1="-45.5792" x2="73.9038" y2="173.095" gradientUnits="userSpaceOnUse">
<stop stop-color="#F3511F"/>
<stop offset="1" stop-color="#F3511F" stop-opacity="0"/>
</linearGradient>
<linearGradient id="paint1_linear_411_1517" x1="73.9038" y1="-63.4516" x2="73.9038" y2="189.916" gradientUnits="userSpaceOnUse">
<stop stop-color="white" stop-opacity="0.34"/>
<stop offset="1" stop-color="white" stop-opacity="0"/>
</linearGradient>
</defs>
</svg>
