<svg width="223" height="54" viewBox="0 0 223 54" fill="none" xmlns="http://www.w3.org/2000/svg">
<g clip-path="url(#clip0_0_850)">
<path d="M75.8866 15.6902C77.7396 15.6439 79.5747 16.0548 81.2241 16.8853C82.6945 17.6509 83.9017 18.8261 84.6941 20.2634C85.5299 21.8183 85.9487 23.5567 85.9109 25.3146C85.9012 26.202 85.8144 27.0869 85.6513 27.9598C85.3213 29.9723 84.5285 31.8845 83.3332 33.551C82.1795 35.1539 80.6491 36.4597 78.8717 37.3575C77.0352 38.2814 74.9973 38.7523 72.934 38.7297C71.0654 38.777 69.2142 38.3662 67.5478 37.5346C66.0759 36.7777 64.8676 35.6063 64.0778 34.1706C63.2511 32.6199 62.8375 30.8889 62.8754 29.1389C62.883 28.2303 62.9698 27.324 63.135 26.43C63.4653 24.4167 64.2588 22.5039 65.455 20.8371C66.6094 19.2324 68.1469 17.9303 69.9326 17.0447C71.7786 16.1325 73.8203 15.6681 75.8866 15.6902ZM75.5297 19.8332C73.6295 19.8073 71.7926 20.5039 70.4031 21.7772C68.9042 23.1639 67.9217 25.0041 67.6127 27.0037C67.5142 27.5939 67.46 28.1904 67.4504 28.7883C67.4504 30.573 67.9696 31.9805 69.0079 33.011C70.0462 34.0414 71.4733 34.5566 73.2891 34.5566C74.5456 34.5667 75.7843 34.2653 76.8907 33.6802C78.0125 33.0794 78.9698 32.2211 79.6811 31.1785C80.4603 30.0395 80.9703 28.7437 81.1737 27.3861C81.2879 26.7878 81.3423 26.18 81.3359 25.5714C81.3359 23.7867 80.8167 22.3851 79.7785 21.3664C78.7402 20.3478 77.3239 19.8367 75.5297 19.8332ZM101.52 20.6299C103.51 20.6299 105.094 21.2348 106.273 22.4447C107.452 23.6545 108.041 25.3329 108.041 27.4799C108.038 28.2169 107.973 28.9524 107.847 29.6789C107.552 31.4006 106.9 33.0444 105.932 34.5088C105.074 35.8129 103.904 36.8907 102.524 37.6479C101.214 38.3615 99.7402 38.7339 98.2425 38.7297C96.9278 38.7894 95.6308 38.4134 94.5598 37.662C93.6264 36.9638 92.9945 35.9463 92.7896 34.8116L90.6175 46.9217H86.0425L90.7166 20.853H95.2898L94.6085 24.5179C95.2693 23.3379 96.2453 22.3573 97.4313 21.6816C98.6716 20.9729 100.085 20.6093 101.52 20.6299ZM97.5287 34.7797C98.8812 34.7995 100.191 34.3156 101.195 33.4253C102.28 32.4382 102.99 31.1173 103.207 29.6807C103.268 29.2797 103.301 28.8751 103.304 28.4697C103.339 27.9412 103.263 27.4114 103.082 26.9127C102.9 26.414 102.617 25.957 102.25 25.5696C101.86 25.2178 101.402 24.9464 100.903 24.7715C100.404 24.5967 99.8745 24.5219 99.3457 24.5516C97.9889 24.5411 96.6786 25.0365 95.6792 25.9379C94.5875 26.9197 93.8765 28.2431 93.6675 29.6824C93.6046 30.0618 93.5721 30.4454 93.5702 30.8297C93.54 31.3601 93.6209 31.891 93.8079 32.3895C93.9948 32.888 94.2839 33.3436 94.6571 33.728C95.0392 34.084 95.4904 34.3606 95.9838 34.5413C96.4772 34.722 97.0026 34.8031 97.5287 34.7797ZM115.764 32.3559C115.715 32.6079 115.693 32.8643 115.699 33.1207C115.673 33.341 115.701 33.5641 115.78 33.7718C115.859 33.9795 115.987 34.1659 116.153 34.3158C116.604 34.576 117.125 34.6929 117.646 34.6504H119.43L118.716 38.5083H116.314C114.605 38.5083 113.296 38.169 112.388 37.4903C111.479 36.8116 111.025 35.6962 111.025 34.1441C111.03 33.5233 111.095 32.9043 111.219 32.2957L112.582 24.6472H110.086L110.767 20.8548H113.265L114.044 16.4887H118.652L117.873 20.8548H121.831L121.15 24.6472H117.159L115.764 32.3559ZM125.887 16.2302C125.879 15.8383 125.96 15.4494 126.122 15.0913C126.285 14.7333 126.526 14.4149 126.828 14.1588C127.482 13.5968 128.329 13.3005 129.197 13.3302C129.826 13.2949 130.446 13.494 130.933 13.8879C131.14 14.0694 131.303 14.2934 131.412 14.5439C131.521 14.7945 131.573 15.0656 131.564 15.3379C131.573 15.7263 131.495 16.1119 131.335 16.4672C131.175 16.8225 130.938 17.1388 130.639 17.3935C129.988 17.9476 129.147 18.2381 128.286 18.2061C127.649 18.2445 127.02 18.0517 126.518 17.6643C126.311 17.487 126.147 17.2663 126.037 17.0184C125.928 16.7706 125.877 16.5019 125.887 16.232V16.2302ZM130.105 20.8512L126.926 38.5083H122.352L125.532 20.853L130.105 20.8512ZM157.166 20.5963C159.026 20.5963 160.47 21.0902 161.498 22.0782C162.525 23.0661 163.039 24.4843 163.039 26.3327C163.042 26.9735 162.988 27.6134 162.877 28.2448L161.027 38.5083H156.452L158.237 28.7565C158.299 28.3985 158.332 28.0361 158.334 27.6729C158.363 27.244 158.3 26.8138 158.149 26.4103C157.999 26.0068 157.763 25.6389 157.458 25.3306C156.786 24.7577 155.913 24.466 155.025 24.5179C153.842 24.4847 152.69 24.8885 151.796 25.6493C150.85 26.5338 150.237 27.7082 150.06 28.9796L148.34 38.5083H143.765L145.55 28.7565C145.613 28.3985 145.645 28.0361 145.647 27.6729C145.677 27.244 145.614 26.8138 145.463 26.4103C145.312 26.0068 145.076 25.6389 144.771 25.3306C144.099 24.7577 143.226 24.466 142.338 24.5179C141.138 24.4902 139.972 24.9117 139.077 25.6971C138.111 26.6131 137.498 27.8292 137.341 29.1389V28.9796L135.654 38.5083H131.046L134.226 20.853H138.801L138.215 24.1674C138.86 23.0666 139.796 22.1579 140.925 21.5382C142.069 20.9092 143.361 20.5851 144.672 20.598C145.953 20.5485 147.216 20.9055 148.274 21.6161C149.249 22.3311 149.919 23.3757 150.156 24.548C150.915 23.3549 151.963 22.3643 153.206 21.6639C154.405 20.9674 155.773 20.5993 157.166 20.598V20.5963ZM168.555 16.2302C168.547 15.8383 168.627 15.4494 168.79 15.0913C168.953 14.7333 169.194 14.4149 169.496 14.1588C170.149 13.5968 170.996 13.3005 171.864 13.3302C172.494 13.2949 173.114 13.494 173.6 13.8879C173.807 14.0694 173.971 14.2934 174.08 14.5439C174.189 14.7945 174.241 15.0656 174.231 15.3379C174.241 15.7263 174.163 16.1119 174.003 16.4672C173.843 16.8225 173.605 17.1388 173.307 17.3935C172.656 17.9476 171.815 18.2381 170.954 18.2061C170.317 18.2445 169.688 18.0517 169.186 17.6643C168.978 17.487 168.814 17.2663 168.705 17.0184C168.596 16.7706 168.544 16.5019 168.555 16.232V16.2302ZM172.773 20.8512L169.593 38.5083H165.018L168.198 20.853L172.773 20.8512ZM182.282 20.6299C184.704 20.6299 186.548 21.1664 187.814 22.2393C188.447 22.7837 188.957 23.4517 189.311 24.2008C189.666 24.9499 189.858 25.7634 189.874 26.5894H185.397C185.405 26.1997 185.324 25.8131 185.162 25.4576C184.999 25.1021 184.758 24.7866 184.456 24.5339C183.719 23.9934 182.81 23.7279 181.892 23.7849C181.185 23.7525 180.486 23.9423 179.897 24.3267C179.655 24.4887 179.458 24.7079 179.325 24.964C179.192 25.2202 179.126 25.5051 179.134 25.7927C179.131 26.0898 179.217 26.3812 179.382 26.6305C179.546 26.8799 179.782 27.0762 180.059 27.1949C180.979 27.6208 181.941 27.9518 182.931 28.1828C183.971 28.4713 184.994 28.8171 185.995 29.2186C186.779 29.544 187.478 30.0398 188.039 30.6686C188.636 31.3727 188.943 32.2709 188.899 33.1862C188.899 33.5932 188.855 33.9991 188.769 34.3973C188.637 35.0437 188.37 35.6561 187.984 36.1961C187.599 36.736 187.104 37.1918 186.53 37.5346C185.297 38.3313 183.653 38.7297 181.598 38.7297C179.241 38.7297 177.353 38.2044 175.935 37.1539C175.242 36.6467 174.682 35.9847 174.301 35.2227C173.92 34.4608 173.729 33.6207 173.745 32.7719H178.222C178.178 33.162 178.24 33.5565 178.403 33.915C178.565 34.2735 178.822 34.583 179.147 34.8116C179.982 35.3658 180.98 35.6346 181.986 35.5764C182.695 35.624 183.397 35.4197 183.965 35.001C184.184 34.8232 184.36 34.5989 184.478 34.345C184.596 34.091 184.653 33.8141 184.647 33.535C184.652 33.3171 184.61 33.1005 184.524 32.8999C184.437 32.6992 184.307 32.5191 184.144 32.3718C183.782 32.0478 183.357 31.7985 182.895 31.6388C182.397 31.4582 181.683 31.2405 180.753 30.9855C179.74 30.7173 178.743 30.3922 177.768 30.0118C177.016 29.7076 176.349 29.2325 175.821 28.6255C175.257 27.9433 174.968 27.0812 175.01 26.2034C175.012 25.8191 175.044 25.4355 175.107 25.0561C175.229 24.3996 175.49 23.7756 175.874 23.2245C176.257 22.6733 176.754 22.2074 177.332 21.8569C178.576 21.0389 180.225 20.6299 182.28 20.6299H182.282ZM217.13 20.598C218.99 20.598 220.434 21.092 221.461 22.0799C222.489 23.0679 223.002 24.486 223.002 26.3344C223.006 26.9753 222.952 27.6151 222.84 28.2466L220.989 38.5083H216.414L218.199 28.7565C218.261 28.3985 218.294 28.0361 218.296 27.6729C218.325 27.244 218.262 26.8138 218.111 26.4103C217.96 26.0068 217.725 25.6389 217.42 25.3306C216.748 24.7577 215.874 24.466 214.986 24.5179C213.804 24.4847 212.652 24.8885 211.758 25.6493C210.811 26.5338 210.199 27.7082 210.022 28.9796L208.302 38.5083H203.727L205.512 28.7565C205.575 28.3985 205.607 28.0361 205.609 27.6729C205.638 27.244 205.575 26.8138 205.425 26.4103C205.274 26.0068 205.038 25.6389 204.733 25.3306C204.061 24.7577 203.188 24.466 202.3 24.5179C201.1 24.4902 199.934 24.9117 199.039 25.6971C198.073 26.6131 197.46 27.8292 197.303 29.1389V28.9796L195.616 38.5083H191.008L194.186 20.853H198.761L198.175 24.1674C198.82 23.0666 199.756 22.1579 200.885 21.5382C202.029 20.9092 203.321 20.5851 204.632 20.598C205.913 20.5485 207.176 20.9055 208.234 21.6161C209.209 22.3311 209.879 23.3757 210.116 24.548C210.875 23.3549 211.923 22.3643 213.166 21.6639C214.366 20.9671 215.734 20.599 217.128 20.598H217.13Z" fill="white"/>
<path d="M27.4897 54C42.6718 54 54.9794 41.9117 54.9794 27C54.9794 12.0883 42.6718 0 27.4897 0C12.3076 0 0 12.0883 0 27C0 41.9117 12.3076 54 27.4897 54Z" fill="#FF0420"/>
<path d="M19.468 34.1601C18.0377 34.2201 16.6263 33.8219 15.4464 33.0257C14.9366 32.6433 14.5294 32.1447 14.2599 31.573C13.9904 31.0013 13.8668 30.3737 13.8997 29.7445C13.906 29.3779 13.9405 29.0123 14.0029 28.6508C14.1817 27.677 14.436 26.5089 14.7659 25.1466C15.7008 21.4329 18.1136 19.5761 22.0042 19.5761C22.9794 19.5605 23.9476 19.7397 24.8501 20.1029C25.6512 20.4112 26.3404 20.9472 26.8298 21.6423C27.3233 22.3585 27.5755 23.2087 27.5508 24.0732C27.5438 24.433 27.5093 24.7918 27.4477 25.1466C27.2413 26.3484 26.9938 27.5165 26.7054 28.6508C26.2247 30.5007 25.393 31.8848 24.2102 32.803C23.0286 33.7078 21.4478 34.1601 19.468 34.1601ZM19.7568 31.2432C20.4711 31.2626 21.168 31.0249 21.7163 30.5749C22.3222 30.0351 22.7344 29.3176 22.8916 28.5291C23.2079 27.2602 23.4483 26.1529 23.6126 25.2072C23.6679 24.92 23.6955 24.6284 23.6951 24.3361C23.6951 23.1071 23.0421 22.4927 21.7361 22.493C21.016 22.4761 20.3137 22.7132 19.7564 23.1614C19.1616 23.7068 18.7574 24.4228 18.6014 25.2072C18.3538 26.1119 18.1064 27.2192 17.8592 28.5291C17.8032 28.8093 17.7756 29.0942 17.7767 29.3798C17.7767 30.6221 18.4367 31.2432 19.7568 31.2432Z" fill="white"/>
<path d="M28.501 33.958C28.4355 33.9618 28.3699 33.951 28.3092 33.9264C28.2485 33.9019 28.1942 33.8643 28.1504 33.8164C28.0818 33.7075 28.0596 33.5765 28.0886 33.4516L30.9345 20.2854C30.9597 20.1401 31.0403 20.0097 31.1598 19.9206C31.2703 19.8311 31.4086 19.7811 31.5519 19.779H37.0377C38.3292 19.7168 39.6095 20.0417 40.7087 20.7107C41.1606 21.0015 41.5276 21.4028 41.7735 21.8753C42.0194 22.3477 42.1358 22.8749 42.1111 23.405C42.1091 23.7595 42.0676 24.1128 41.9872 24.4584C41.7597 25.8232 41.0158 27.0532 39.9042 27.902C38.8732 28.6447 37.4571 29.0161 35.656 29.0161H32.8723L31.9237 33.4521C31.8984 33.5973 31.8179 33.7277 31.6984 33.8168C31.588 33.9063 31.4499 33.9562 31.3067 33.9584L28.501 33.958ZM35.8015 26.2201C36.3419 26.2318 36.8711 26.0681 37.3071 25.7544C37.7558 25.4308 38.0648 24.9539 38.1733 24.4177C38.2116 24.2172 38.2323 24.0139 38.235 23.81C38.2468 23.6452 38.2214 23.48 38.1608 23.3259C38.1002 23.1718 38.0059 23.0328 37.8844 22.9185C37.5403 22.6689 37.1142 22.5535 36.6884 22.5945H34.2139L33.4302 26.2201H35.8015Z" fill="white"/>
</g>
<defs>
<clipPath id="clip0_0_850">
<rect width="223" height="54" fill="white"/>
</clipPath>
</defs>
</svg>
